<?xml version="1.0" encoding="UTF-8" standalone="no"?>
<!-- Created with Inkscape (http://www.inkscape.org/) -->

<svg
   width="400"
   height="400"
   viewBox="0 0 400 400"
   version="1.1"
   id="svg1"
   inkscape:version="1.4.4 (dcaf3e7d9e, 2026-05-05)"
   sodipodi:docname="assert_suit.svg"
   xml:space="preserve"
   xmlns:inkscape="http://www.inkscape.org/namespaces/inkscape"
   xmlns:sodipodi="http://sodipodi.sourceforge.net/DTD/sodipodi-0.dtd"
   xmlns="http://www.w3.org/2000/svg"
   xmlns:svg="http://www.w3.org/2000/svg"><sodipodi:namedview
     id="namedview1"
     pagecolor="#ffffff"
     bordercolor="#000000"
     borderopacity="0.25"
     inkscape:showpageshadow="2"
     inkscape:pageopacity="0.0"
     inkscape:pagecheckerboard="0"
     inkscape:deskcolor="#d1d1d1"
     inkscape:document-units="px"
     showgrid="true"
     inkscape:zoom="2.0000001"
     inkscape:cx="213.74999"
     inkscape:cy="100.5"
     inkscape:window-width="1920"
     inkscape:window-height="1011"
     inkscape:window-x="0"
     inkscape:window-y="0"
     inkscape:window-maximized="1"
     inkscape:current-layer="layer1"><inkscape:grid
       id="grid1"
       units="px"
       originx="0"
       originy="0"
       spacingx="1"
       spacingy="1"
       empcolor="#0099e5"
       empopacity="0.45882353"
       color="#e50000"
       opacity="0"
       empspacing="8"
       enabled="true"
       visible="true" /></sodipodi:namedview><defs
     id="defs1" /><g
     inkscape:label="Layer 1"
     inkscape:groupmode="layer"
     id="layer1"><g
       id="g3"
       transform="translate(-12.020812,-10.108863)"><path
         id="rect1"
         style="baseline-shift:baseline;display:inline;overflow:visible;vector-effect:none;fill:#9141ac;fill-opacity:1;stroke-width:1.26025;stroke-linecap:round;stroke-linejoin:round;enable-background:accumulate;stop-color:#000000"
         d="m 295.62954,341.6879 c 0,23.92227 19.57858,43.50084 43.50083,43.50084 23.92226,0 43.50087,-19.57861 43.50087,-43.50087 l -2e-5,-299.287583 h -20.41509 l -1e-5,299.287613 c 2e-5,12.96609 -10.1196,23.08817 -23.08589,23.08808 -12.96609,-2e-5 -23.08574,-10.12209 -23.08696,-23.08697 l 1.7e-4,-299.287512 h -20.41509 z" /><path
         style="fill:none;stroke:#9141ac;stroke-width:14.7426;stroke-linecap:round;stroke-linejoin:round;stroke-dasharray:none;stroke-opacity:1"
         d="M 288.72033,42.400287 H 389.54045"
         id="path1"
         sodipodi:nodetypes="cc" /><path
         style="fill:none;stroke:#9141ac;stroke-width:15.123;stroke-linecap:round;stroke-linejoin:round;stroke-dasharray:none;stroke-opacity:1"
         d="m 304,168 c 16,0 56,0 72,0"
         id="path1-3"
         sodipodi:nodetypes="cc" /><path
         style="fill:#9141ac;fill-opacity:1;stroke:none;stroke-width:9.31535;stroke-linecap:round;stroke-linejoin:round;stroke-dasharray:none;stroke-opacity:1"
         d="m 304,168 h 36 36 l -8,200 h -56 z"
         id="path2"
         sodipodi:nodetypes="cccccc" /></g><g
       id="g3-9"
       transform="translate(-266.23997,-10.108863)"><path
         id="rect1-3"
         style="baseline-shift:baseline;display:inline;overflow:visible;vector-effect:none;fill:#9141ac;fill-opacity:1;stroke-width:1.26025;stroke-linecap:round;stroke-linejoin:round;enable-background:accumulate;stop-color:#000000"
         d="m 295.62954,341.6879 c 0,23.92227 19.57858,43.50084 43.50083,43.50084 23.92226,0 43.50087,-19.57861 43.50087,-43.50087 l -2e-5,-299.287583 h -20.41509 l -1e-5,299.287613 c 2e-5,12.96609 -10.1196,23.08817 -23.08589,23.08808 -12.96609,-2e-5 -23.08574,-10.12209 -23.08696,-23.08697 l 1.7e-4,-299.287512 h -20.41509 z" /><path
         style="fill:none;stroke:#9141ac;stroke-width:14.7426;stroke-linecap:round;stroke-linejoin:round;stroke-dasharray:none;stroke-opacity:1"
         d="M 288.72033,42.400287 H 389.54045"
         id="path1-60"
         sodipodi:nodetypes="cc" /><path
         style="fill:none;stroke:#9141ac;stroke-width:15.123;stroke-linecap:round;stroke-linejoin:round;stroke-dasharray:none;stroke-opacity:1"
         d="m 304,168 c 16,0 56,0 72,0"
         id="path1-3-6"
         sodipodi:nodetypes="cc" /><path
         style="fill:#9141ac;fill-opacity:1;stroke:none;stroke-width:9.31535;stroke-linecap:round;stroke-linejoin:round;stroke-dasharray:none;stroke-opacity:1"
         d="m 304,168 h 36 36 l -8,200 h -56 z"
         id="path2-2"
         sodipodi:nodetypes="cccccc" /></g><g
       id="g3-3"
       transform="translate(-139.13039,-10.108863)"><path
         id="rect1-5"
         style="baseline-shift:baseline;display:inline;overflow:visible;vector-effect:none;fill:#9141ac;fill-opacity:1;stroke-width:1.26025;stroke-linecap:round;stroke-linejoin:round;enable-background:accumulate;stop-color:#000000"
         d="m 295.62954,341.6879 c 0,23.92227 19.57858,43.50084 43.50083,43.50084 23.92226,0 43.50087,-19.57861 43.50087,-43.50087 l -2e-5,-299.287583 h -20.41509 l -1e-5,299.287613 c 2e-5,12.96609 -10.1196,23.08817 -23.08589,23.08808 -12.96609,-2e-5 -23.08574,-10.12209 -23.08696,-23.08697 l 1.7e-4,-299.287512 h -20.41509 z" /><path
         style="fill:none;stroke:#9141ac;stroke-width:14.7426;stroke-linecap:round;stroke-linejoin:round;stroke-dasharray:none;stroke-opacity:1"
         d="M 288.72033,42.400287 H 389.54045"
         id="path1-6"
         sodipodi:nodetypes="cc" /><path
         style="fill:none;stroke:#9141ac;stroke-width:15.123;stroke-linecap:round;stroke-linejoin:round;stroke-dasharray:none;stroke-opacity:1"
         d="m 304,168 c 16,0 56,0 72,0"
         id="path1-3-2"
         sodipodi:nodetypes="cc" /><path
         style="fill:#9141ac;fill-opacity:1;stroke:none;stroke-width:9.31535;stroke-linecap:round;stroke-linejoin:round;stroke-dasharray:none;stroke-opacity:1"
         d="m 304,168 h 36 36 l -8,200 h -56 z"
         id="path2-9"
         sodipodi:nodetypes="cccccc" /></g></g><inkscape:templateinfo><inkscape:name>default</inkscape:name><inkscape:date>2024-11-24</inkscape:date></inkscape:templateinfo></svg>
